<svg xmlns="http://www.w3.org/2000/svg" viewBox="0 0 120 120" fill="none">
  <!-- Haar (kort, bruin) -->
  <ellipse cx="60" cy="46" rx="30" ry="28" fill="#6B3A2A"/>
  <!-- Gezicht -->
  <circle cx="60" cy="50" r="27" fill="#FDBCB4"/>
  <!-- Haar top (spiky) -->
  <path d="M36 40 Q42 24 50 30 Q54 18 60 26 Q66 18 70 30 Q78 24 84 40" fill="#6B3A2A"/>
  <!-- Oren -->
  <ellipse cx="33" cy="52" rx="5" ry="7" fill="#FDBCB4"/>
  <ellipse cx="87" cy="52" rx="5" ry="7" fill="#FDBCB4"/>
  <!-- Ogen -->
  <ellipse cx="49" cy="50" rx="5" ry="5.5" fill="#3D3229"/>
  <ellipse cx="71" cy="50" rx="5" ry="5.5" fill="#3D3229"/>
  <circle cx="51" cy="48" r="1.5" fill="white"/>
  <circle cx="73" cy="48" r="1.5" fill="white"/>
  <!-- Wenkbrauwen -->
  <path d="M43 43 Q49 40 55 43" stroke="#6B3A2A" stroke-width="2" stroke-linecap="round" fill="none"/>
  <path d="M65 43 Q71 40 77 43" stroke="#6B3A2A" stroke-width="2" stroke-linecap="round" fill="none"/>
  <!-- Wangen -->
  <ellipse cx="42" cy="58" rx="6" ry="4" fill="#F4A99A" opacity="0.5"/>
  <ellipse cx="78" cy="58" rx="6" ry="4" fill="#F4A99A" opacity="0.5"/>
  <!-- Neus -->
  <ellipse cx="60" cy="58" rx="3" ry="2" fill="#F0A090"/>
  <!-- Mond -->
  <path d="M51 66 Q60 73 69 66" stroke="#C45D40" stroke-width="2.5" stroke-linecap="round" fill="none"/>
  <!-- Lichaam -->
  <rect x="40" y="80" width="40" height="38" rx="12" fill="#7BAFA3"/>
  <!-- Streep op kleding -->
  <rect x="40" y="86" width="40" height="6" rx="2" fill="#5B8C5A"/>
</svg>
