<svg xmlns="http://www.w3.org/2000/svg" viewBox="0 0 120 120" fill="none">
  <!-- Haar (vlechten) -->
  <ellipse cx="60" cy="50" rx="32" ry="34" fill="#D4A017"/>
  <!-- Gezicht -->
  <circle cx="60" cy="50" r="27" fill="#FFD5A8"/>
  <!-- Vlechten -->
  <path d="M33 72 Q28 90 32 105" stroke="#D4A017" stroke-width="10" stroke-linecap="round"/>
  <path d="M87 72 Q92 90 88 105" stroke="#D4A017" stroke-width="10" stroke-linecap="round"/>
  <!-- Haar top -->
  <ellipse cx="60" cy="30" rx="28" ry="14" fill="#D4A017"/>
  <!-- Haarband -->
  <rect x="32" y="34" width="56" height="6" rx="3" fill="#7BAFA3"/>
  <!-- Ogen -->
  <ellipse cx="49" cy="48" rx="5" ry="6" fill="#3D3229"/>
  <ellipse cx="71" cy="48" rx="5" ry="6" fill="#3D3229"/>
  <circle cx="51" cy="46" r="1.5" fill="white"/>
  <circle cx="73" cy="46" r="1.5" fill="white"/>
  <!-- Sproeten -->
  <circle cx="52" cy="55" r="1.5" fill="#C17A3A" opacity="0.5"/>
  <circle cx="56" cy="57" r="1.5" fill="#C17A3A" opacity="0.5"/>
  <circle cx="64" cy="57" r="1.5" fill="#C17A3A" opacity="0.5"/>
  <circle cx="68" cy="55" r="1.5" fill="#C17A3A" opacity="0.5"/>
  <!-- Wangen -->
  <ellipse cx="41" cy="56" rx="6" ry="4" fill="#F0A090" opacity="0.5"/>
  <ellipse cx="79" cy="56" rx="6" ry="4" fill="#F0A090" opacity="0.5"/>
  <!-- Neus -->
  <ellipse cx="60" cy="56" rx="3" ry="2" fill="#E8A888"/>
  <!-- Mond -->
  <path d="M51 64 Q60 72 69 64" stroke="#C45D40" stroke-width="2.5" stroke-linecap="round" fill="none"/>
  <!-- Lichaam -->
  <rect x="40" y="80" width="40" height="38" rx="12" fill="#7BAFA3"/>
  <!-- Stippen op kleding -->
  <circle cx="52" cy="92" r="3" fill="white" opacity="0.6"/>
  <circle cx="60" cy="88" r="3" fill="white" opacity="0.6"/>
  <circle cx="68" cy="92" r="3" fill="white" opacity="0.6"/>
</svg>
